<?xml version="1.0" standalone="no"?><!DOCTYPE svg PUBLIC "-//W3C//DTD SVG 1.1//EN" "http://www.w3.org/Graphics/SVG/1.1/DTD/svg11.dtd"><svg t="1614170766827" class="icon" viewBox="0 0 1098 1024" version="1.1" xmlns="http://www.w3.org/2000/svg" p-id="4477" xmlns:xlink="http://www.w3.org/1999/xlink" width="214.453125" height="200"><defs><style type="text/css"></style></defs><path d="M448.678015 85.079395c-3.291037 14.50494-24.25616 22.305916-38.882991 18.892989-19.746221-4.63183-43.149149-7.679086-70.330675-7.679086-70.086894-0.12189-137.370313 27.790977-186.857755 77.5222-49.975003 49.975003-77.64409 116.770861-77.64409 187.710987-0.243781 70.452565 34.251161 139.198667 84.104274 188.929889l391.145816 391.511487 390.048803-390.170694c103.484823-103.728604 107.629092-279.372456 4.144269-383.101059-49.975003-49.975003-116.770861-77.64409-187.710987-77.64409-70.452565-0.243781-143.099155 34.12927-192.830377 83.982383L346.046423 394.680633c-1.828354 1.828354-20.355672 7.800976-34.373051-4.9975s-8.044757-32.788478 0-40.955124l198.437329-198.437329 40.589454-32.179027 10.238781-8.166646c55.825735-45.099393 125.546959-69.355553 197.340316-68.989883 83.982383-0.243781 164.673729 33.032258 224.034282 92.636591 123.596715 123.840495 123.596715 324.349958 0 448.068564L564.595643 999.378169c-4.022378 4.022378-9.50744 6.338293-15.236281 6.338293s-11.213903-2.315915-15.236281-6.338293L116.52708 581.660279c-59.726223-59.726223-92.636591-139.320557-92.636591-224.034282-0.243781-83.982383 33.032258-164.673729 92.636591-223.912391C151.753363 98.243542 195.024402 71.793358 242.5616 56.435186l13.042257-4.144268c27.669087-7.800976 56.313296-11.823354 85.079395-11.823355 30.350673 0 60.457565 4.509939 89.345554 12.920367 13.651708 3.900488 21.818355 17.795977 18.649209 31.691465z" p-id="4478"></path></svg>