<?xml version="1.0" standalone="no"?><!DOCTYPE svg PUBLIC "-//W3C//DTD SVG 1.1//EN" "http://www.w3.org/Graphics/SVG/1.1/DTD/svg11.dtd"><svg t="1614062128708" class="icon" viewBox="0 0 1024 1024" version="1.1" xmlns="http://www.w3.org/2000/svg" p-id="15436" xmlns:xlink="http://www.w3.org/1999/xlink" width="200" height="200"><defs><style type="text/css"></style></defs><path d="M715.077162 466.798519H555.264363V306.98572c0-19.62292-15.895015-35.511795-35.516912-35.511795-19.621896 0-35.511795 15.887852-35.511795 35.511795v159.812799H324.418764c-19.62292 0-35.511795 15.895015-35.511795 35.516911s15.893992 35.511795 35.511795 35.511795h159.817916v159.817916c0 19.61678 15.889899 35.511795 35.511795 35.511795 19.621896 0 35.511795-15.895015 35.511795-35.511795V537.826202h159.817915c19.621896 0 35.511795-15.889899 35.511795-35.511795s-15.890922-35.515888-35.512818-35.515888z m0 0" p-id="15437"></path><path d="M510.87027 5.116531c-279.496645 0-506.077104 226.580458-506.077104 506.07608s226.580458 506.077104 506.077104 506.077104c279.495622 0 506.07608-226.582505 506.07608-506.077104s-226.580458-506.07608-506.07608-506.07608z m0 941.124478c-240.272295 0-435.048397-194.778148-435.048397-435.048398s194.777125-435.048397 435.048397-435.048397c240.271272 0 435.047374 194.778148 435.047374 435.048397s-194.777125 435.048397-435.047374 435.048398z m0 0" p-id="15438"></path></svg>