<?xml version="1.0" standalone="no"?><!DOCTYPE svg PUBLIC "-//W3C//DTD SVG 1.1//EN" "http://www.w3.org/Graphics/SVG/1.1/DTD/svg11.dtd"><svg t="1613910058061" class="icon" viewBox="0 0 1024 1024" version="1.1" xmlns="http://www.w3.org/2000/svg" p-id="2436" xmlns:xlink="http://www.w3.org/1999/xlink" width="200" height="200"><defs><style type="text/css"></style></defs><path d="M683.323077 610.461538l-7.876923 1.969231c-29.538462 9.846154-61.046154-3.938462-72.861539-33.476923l-64.984615-173.292308c-51.2-137.846154-206.769231-204.8-342.646154-147.692307C66.953846 311.138462 9.846154 460.8 57.107692 590.769231L118.153846 758.153846c9.846154 29.538462-5.907692 61.046154-33.476923 70.892308l-7.876923 1.969231c-33.476923 11.815385-49.230769 51.2-37.415385 84.676923l7.876923 21.661538c3.938462 9.846154 17.723077 17.723077 29.538462 11.815385l677.415385-250.092308c11.815385-3.938462 17.723077-19.692308 13.784615-31.507692l-7.876923-21.661539c-5.907692-31.507692-43.323077-49.230769-76.8-35.446154z m-165.415385 248.123077l-147.692307 55.138462c-9.846154 3.938462-13.784615 15.753846-7.876923 23.630769 23.630769 39.384615 72.861538 55.138462 116.184615 39.384616 43.323077-15.753846 68.923077-61.046154 63.015385-104.369231-3.938462-9.846154-15.753846-15.753846-23.63077-13.784616z m450.953846-295.384615c33.476923-112.246154 15.753846-232.369231-45.292307-330.830769-61.046154-100.430769-161.476923-169.353846-275.692308-191.015385-9.846154-1.969231-17.723077 3.938462-17.723077 11.815385l-9.846154 55.138461c-1.969231 7.876923 3.938462 13.784615 11.815385 15.753846 88.615385 17.723077 167.384615 72.861538 216.615385 151.63077s61.046154 173.292308 37.415384 261.907692c-1.969231 7.876923 1.969231 15.753846 9.846154 17.723077l53.169231 17.723077c9.846154 0 17.723077-1.969231 19.692307-9.846154zM752.246154 334.769231c-31.507692-51.2-82.707692-84.676923-141.784616-96.492308-7.876923-1.969231-15.753846 3.938462-17.723076 11.815385l-5.907693 57.107692c0 7.876923 3.938462 13.784615 11.815385 15.753846 33.476923 7.876923 63.015385 27.569231 80.738461 57.107692 17.723077 29.538462 23.630769 64.984615 13.784616 96.492308-1.969231 5.907692 1.969231 13.784615 7.876923 15.753846l53.169231 21.661539c7.876923 3.938462 15.753846-1.969231 19.692307-9.846154 17.723077-57.107692 9.846154-118.153846-21.661538-169.353846z" p-id="2437"></path></svg>