<?xml version="1.0" standalone="no"?><!DOCTYPE svg PUBLIC "-//W3C//DTD SVG 1.1//EN" "http://www.w3.org/Graphics/SVG/1.1/DTD/svg11.dtd"><svg t="1614162775602" class="icon" viewBox="0 0 1024 1024" version="1.1" xmlns="http://www.w3.org/2000/svg" p-id="3646" xmlns:xlink="http://www.w3.org/1999/xlink" width="200" height="200"><defs><style type="text/css"></style></defs><path d="M896 938.666667H128c-25.6 0-42.666667-17.066667-42.666667-42.666667V341.333333c0-25.6 17.066667-42.666667 42.666667-42.666666s42.666667 17.066667 42.666667 42.666666v512h682.666666V341.333333c0-25.6 17.066667-42.666667 42.666667-42.666666s42.666667 17.066667 42.666667 42.666666v554.666667c0 25.6-17.066667 42.666667-42.666667 42.666667z" p-id="3647"></path><path d="M981.333333 384H42.666667c-25.6 0-42.666667-17.066667-42.666667-42.666667V128c0-25.6 17.066667-42.666667 42.666667-42.666667h938.666666c25.6 0 42.666667 17.066667 42.666667 42.666667v213.333333c0 25.6-17.066667 42.666667-42.666667 42.666667zM85.333333 298.666667h853.333334V170.666667H85.333333v128zM597.333333 554.666667h-170.666666c-25.6 0-42.666667-17.066667-42.666667-42.666667s17.066667-42.666667 42.666667-42.666667h170.666666c25.6 0 42.666667 17.066667 42.666667 42.666667s-17.066667 42.666667-42.666667 42.666667z" p-id="3648"></path></svg>