<?xml version="1.0" standalone="no"?><!DOCTYPE svg PUBLIC "-//W3C//DTD SVG 1.1//EN" "http://www.w3.org/Graphics/SVG/1.1/DTD/svg11.dtd"><svg t="1614255611441" class="icon" viewBox="0 0 1024 1024" version="1.1" xmlns="http://www.w3.org/2000/svg" p-id="2060" xmlns:xlink="http://www.w3.org/1999/xlink" width="200" height="200"><defs><style type="text/css"></style></defs><path d="M907.636364 139.636364H116.363636c-65.163636 0-116.363636 51.2-116.363636 116.363636v535.272727c0 65.163636 51.2 116.363636 116.363636 116.363637h791.272728c65.163636 0 116.363636-51.2 116.363636-116.363637V256c0-65.163636-51.2-116.363636-116.363636-116.363636z m69.818181 651.636363c0 39.563636-30.254545 69.818182-69.818181 69.818182H116.363636c-39.563636 0-69.818182-30.254545-69.818181-69.818182V465.454545h930.90909v325.818182z m0-372.363636H46.545455v-69.818182h930.90909v69.818182z m0-116.363636H46.545455v-46.545455c0-39.563636 30.254545-69.818182 69.818181-69.818182h791.272728c39.563636 0 69.818182 30.254545 69.818181 69.818182v46.545455z" p-id="2061"></path><path d="M512 721.454545h372.363636v46.545455H512z" p-id="2062"></path></svg>