<?xml version="1.0" standalone="no"?><!DOCTYPE svg PUBLIC "-//W3C//DTD SVG 1.1//EN" "http://www.w3.org/Graphics/SVG/1.1/DTD/svg11.dtd"><svg t="1614223504872" class="icon" viewBox="0 0 1024 1024" version="1.1" xmlns="http://www.w3.org/2000/svg" p-id="4350" xmlns:xlink="http://www.w3.org/1999/xlink" width="200" height="200"><defs><style type="text/css"></style></defs><path d="M576 64A64 64 0 0 1 640 128v256h192a64 64 0 0 1 64 64v128a64 64 0 0 1-64 64v256a64 64 0 0 1-64 64H256A64 64 0 0 1 192 896v-256A64 64 0 0 1 128 576v-128A64 64 0 0 1 192 384H384V128a64 64 0 0 1 64-64h128zM768 640H256v224c0 17.664 14.336 32 32 32h448a32 32 0 0 0 32-32V640z m-224 106.666667a32 32 0 0 1 32 32v96H512v-96a32 32 0 0 1 32-32z m128-64a32 32 0 0 1 32 32v160H640v-160a32 32 0 0 1 32-32z m-256 128a32 32 0 0 1 32 32v32H384v-32a32 32 0 0 1 32-32z m128-682.666667h-64a32 32 0 0 0-32 32v288H224a32 32 0 0 0-32 32v64c0 17.664 14.336 32 32 32h576a32 32 0 0 0 32-32v-64a32 32 0 0 0-32-32H576V160a32 32 0 0 0-32-32z" p-id="4351"></path></svg>