<?xml version="1.0" standalone="no"?><!DOCTYPE svg PUBLIC "-//W3C//DTD SVG 1.1//EN" "http://www.w3.org/Graphics/SVG/1.1/DTD/svg11.dtd"><svg t="1613019632214" class="icon" viewBox="0 0 1024 1024" version="1.1" xmlns="http://www.w3.org/2000/svg" p-id="4044" xmlns:xlink="http://www.w3.org/1999/xlink" width="200" height="200"><defs><style type="text/css"></style></defs><path d="M730.272 613.728l0 62.272q0 28.576-20.864 50.848t-53.728 34.56-67.424 18.56-67.136 6.272q-117.152 0-195.712-79.424t-78.56-197.728q0-116 77.728-193.728t193.728-77.728q19.424 0 43.136 2.56t53.152 10.272 52.864 19.424 39.424 32.288 16 46.272l0 62.272q0 9.152-9.152 9.152l-67.424 0q-9.152 0-9.152-9.152l0-40q0-24.576-37.44-38.56t-78.56-14.016q-80 0-130.56 52.288t-50.56 135.712q0 86.272 52.288 142.56t133.44 56.288q38.848 0 78.848-13.728t40-37.728l0-40q0-4 2.56-6.56t6.016-2.56l68 0q3.424 0 6.272 2.56t2.848 6.56zM511.968 146.272q-74.272 0-142.016 29.152t-116.576 78.016-78.016 116.576-29.152 142.016 29.152 142.016 78.016 116.576 116.576 78.016 142.016 29.152 141.984-29.152 116.576-78.016 78.016-116.576 29.152-142.016-29.152-142.016-78.016-116.576-116.576-78.016-142.016-29.152zM950.848 512q0 119.424-58.848 220.288t-159.712 159.712-220.288 58.848-220.288-58.848-159.712-159.712-58.848-220.288 58.848-220.288 159.712-159.712 220.288-58.848 220.288 58.848 159.712 159.712 58.848 220.288z" p-id="4045"></path></svg>