<?xml version="1.0" standalone="no"?><!DOCTYPE svg PUBLIC "-//W3C//DTD SVG 1.1//EN" "http://www.w3.org/Graphics/SVG/1.1/DTD/svg11.dtd"><svg t="1614060206113" class="icon" viewBox="0 0 1024 1024" version="1.1" xmlns="http://www.w3.org/2000/svg" p-id="8707" xmlns:xlink="http://www.w3.org/1999/xlink" width="200" height="200"><defs><style type="text/css"></style></defs><path d="M438.690909 589.893818l-143.825454-32.442182c-32.023273-7.214545-37.282909-50.618182-7.912728-65.28l395.636364-197.585454c29.719273-14.848 61.44 16.314182 47.080727 46.312727l-189.346909 395.636364c-14.056727 29.370182-57.111273 25.204364-65.28-6.330182l-36.328727-140.334546z m184.087273-187.415273l-217.041455 108.404364 69.12 15.592727a34.909091 34.909091 0 0 1 26.088728 25.297455l17.687272 68.305454 104.145455-217.6z m127.697454-330.775272a34.909091 34.909091 0 1 1-33.396363 61.300363 428.683636 428.683636 0 0 0-183.156364-51.572363C296.494545 68.980364 93.928727 251.392 81.454545 488.843636c-12.450909 237.451636 169.960727 440.040727 407.412364 452.491637 237.474909 12.450909 440.040727-169.960727 452.491636-407.435637a428.381091 428.381091 0 0 0-68.724363-256.861091 34.909091 34.909091 0 0 1 58.554182-38.027636 498.199273 498.199273 0 0 1 79.895272 298.542546c-14.452364 275.968-249.902545 487.959273-525.870545 473.506909C209.245091 996.584727-2.722909 761.157818 11.729455 485.189818 26.181818 209.221818 261.632-2.792727 537.6 11.706182a498.501818 498.501818 0 0 1 212.875636 59.997091z" p-id="8708"></path></svg>