<?xml version="1.0" standalone="no"?><!DOCTYPE svg PUBLIC "-//W3C//DTD SVG 1.1//EN" "http://www.w3.org/Graphics/SVG/1.1/DTD/svg11.dtd"><svg t="1613820332744" class="icon" viewBox="0 0 1024 1024" version="1.1" xmlns="http://www.w3.org/2000/svg" p-id="10687" xmlns:xlink="http://www.w3.org/1999/xlink" width="200" height="200"><defs><style type="text/css"></style></defs><path d="M911.33 158.081V100.284c0-17.717-14.276-31.994-31.994-31.994-17.717 0-31.994 14.277-31.994 31.994 0 0 0 25.802-25.803 25.802H198.85c-25.803 0-25.803-25.802-25.803-25.802 0-17.717-14.277-31.994-31.994-31.994s-31.995 14.277-31.995 31.994v153.953c0 17.717 14.277 31.994 31.995 31.994s31.994-14.277 31.994-31.994v-0.172c0-63.99 63.99-63.99 63.99-63.99h152.06c13.589 1.205 56.249 8.945 59.689 57.453v584.848c-3.44 48.508-46.1 56.249-59.69 57.453h-37.842c-17.718 0-31.995 14.277-31.995 31.995s14.277 31.994 31.995 31.994h318.226c17.717 0 31.995-14.277 31.995-31.994s-14.278-31.995-31.995-31.995h-38.015c-13.59-1.204-56.249-8.945-59.69-57.453V247.528c3.441-48.508 46.1-56.248 59.69-57.452h151.888s63.99-0.172 63.99 63.989v0.172c0 17.717 14.277 31.994 31.994 31.994s31.995-14.277 31.995-31.994v-94.608-1.548z" p-id="10688"></path></svg>