<?xml version="1.0" standalone="no"?><!DOCTYPE svg PUBLIC "-//W3C//DTD SVG 1.1//EN" "http://www.w3.org/Graphics/SVG/1.1/DTD/svg11.dtd"><svg t="1613818115453" class="icon" viewBox="0 0 1024 1024" version="1.1" xmlns="http://www.w3.org/2000/svg" p-id="2055" xmlns:xlink="http://www.w3.org/1999/xlink" width="200" height="200"><defs><style type="text/css"></style></defs><path d="M597.376 614.188c-11.812 0-21.376 9.562-21.376 21.344v170.656c0 11.782 9.562 21.344 21.376 21.344 11.75 0 21.312-9.562 21.312-21.344v-170.656c0-11.782-9.564-21.344-21.312-21.344zM433.312 610.094l-147.812-85.344c-10.188-5.876-23.25-2.376-29.124 7.812-5.876 10.218-2.376 23.25 7.812 29.156L412 647.062c10.188 5.876 23.25 2.376 29.124-7.812 5.876-10.218 2.438-23.25-7.812-29.156z" fill="#434A54" p-id="2056"></path><path d="M774.5 430.062V151.532L512 0 249.5 151.532v278.532L8.312 569.312v303.124L270.812 1024 512 884.75 753.188 1024l262.5-151.562V569.312L774.5 430.062zM292.188 176.188L512 49.25l219.876 126.938v253.844L512 556.938l-219.812-126.906V176.188zM51 847.782V593.938l219.812-126.906 219.876 126.906v253.844L270.812 974.72 51 847.782z m922 0L753.188 974.72l-219.812-126.938V593.938l219.812-126.906L973 593.938v253.844z" fill="#CCD1D9" p-id="2057"></path><path d="M497.312 107L349.5 192.344c-10.188 5.876-13.688 18.938-7.812 29.124 5.938 10.218 19 13.718 29.188 7.812l147.812-85.344c10.188-5.876 13.688-18.938 7.812-29.124a21.362 21.362 0 0 0-29.188-7.812z" fill="#434A54" p-id="2058"></path></svg>