<?xml version="1.0" standalone="no"?><!DOCTYPE svg PUBLIC "-//W3C//DTD SVG 1.1//EN" "http://www.w3.org/Graphics/SVG/1.1/DTD/svg11.dtd"><svg t="1613651709451" class="icon" viewBox="0 0 1024 1024" version="1.1" xmlns="http://www.w3.org/2000/svg" p-id="9892" xmlns:xlink="http://www.w3.org/1999/xlink" width="200" height="200"><defs><style type="text/css"></style></defs><path d="M512 85.333333c235.648 0 426.666667 191.061333 426.666667 426.666667s-191.018667 426.666667-426.666667 426.666667S85.333333 747.605333 85.333333 512 276.352 85.333333 512 85.333333z m0 71.125334c-196.053333 0-355.541333 159.488-355.541333 355.541333 0 196.053333 159.488 355.541333 355.541333 355.541333 196.053333 0 355.541333-159.488 355.541333-355.541333 0-196.053333-159.488-355.541333-355.541333-355.541333z m-0.042667 462.293333a42.624 42.624 0 1 1 0 85.248 42.624 42.624 0 0 1 0-85.248zM511.744 298.666667a32 32 0 0 1 31.744 27.648l0.298667 4.309333 0.170666 192.085333a32 32 0 0 1-63.701333 4.394667l-0.298667-4.352-0.170666-192.042667a32 32 0 0 1 32-32.042666z" p-id="9893"></path></svg>