<?xml version="1.0" standalone="no"?><!DOCTYPE svg PUBLIC "-//W3C//DTD SVG 1.1//EN" "http://www.w3.org/Graphics/SVG/1.1/DTD/svg11.dtd"><svg t="1614234966671" class="icon" viewBox="0 0 1024 1024" version="1.1" xmlns="http://www.w3.org/2000/svg" p-id="9362" xmlns:xlink="http://www.w3.org/1999/xlink" width="200" height="200"><defs><style type="text/css"></style></defs><path d="M643.651442 697.815003h87.770651v43.885326h-87.770651v117.027535h336.454163v-702.16521H643.651442v102.399093h87.770651v43.885326h-87.770651v102.399093h87.770651v43.885326h-87.770651v102.399093h87.770651v43.885325h-87.770651v102.399093z m0-585.137674h351.082605a29.256884 29.256884 0 0 1 29.256883 29.256884v731.422093a29.256884 29.256884 0 0 1-29.256883 29.256883H643.651442v87.770652c0 16.164428-13.092455 27.13576-29.256884 24.517268L29.256884 920.094177c-16.164428-2.618491-29.256884-15.169694-29.256884-28.042723V123.239064c0-12.873029 13.092455-25.409604 29.256884-28.028095L614.394558 0.389409c16.164428-2.618491 29.256884 8.367469 29.256884 24.517269v87.770651zM321.825721 424.307026l50.541267-92.203069H468.11014l-98.405529 179.520238L468.11014 691.144434h-95.743152L321.825721 598.955993l-50.541267 92.188441H175.541302l98.405529-179.520239L175.541302 332.103957h95.743152L321.825721 424.307026zM43.885326 878.00815l555.88079 90.067317V47.215052L43.885326 137.311625V878.00815z m731.422093-619.046403h160.91286v43.885326H775.307419v-43.885326z m0 146.284419h160.91286v43.885326H775.307419v-43.885326z m0 146.284419h160.91286v43.885325H775.307419v-43.885325z m0 146.284418h160.91286v43.885326H775.307419v-43.885326z" p-id="9363"></path></svg>