<?xml version="1.0" standalone="no"?><!DOCTYPE svg PUBLIC "-//W3C//DTD SVG 1.1//EN" "http://www.w3.org/Graphics/SVG/1.1/DTD/svg11.dtd"><svg t="1614256733980" class="icon" viewBox="0 0 1024 1024" version="1.1" xmlns="http://www.w3.org/2000/svg" p-id="1673" xmlns:xlink="http://www.w3.org/1999/xlink" width="200" height="200"><defs><style type="text/css"></style></defs><path d="M395.667328 42.766621v255.988765c0 23.550966-18.943169 42.664794-42.209703 42.664794H99.175452C61.630433 341.363293 42.801037 295.285316 69.423869 268.548711L323.649155 12.559947c26.565945-26.850377 72.018173-7.793436 72.018173 30.149787zM311.191036 256.090592V145.503445L201.343412 256.090592h109.90451z m380.854395 665.001924a43.119885 43.119885 0 0 0 0.113773 60.185803 41.754612 41.754612 0 0 0 59.44628 0.284432l179.362795-181.353818a42.380362 42.380362 0 0 0 11.889256-24.347376 42.664794 42.664794 0 0 0-11.83237-36.57795l-179.249022-181.126273a42.039044 42.039044 0 0 0-59.616939 0.113773 42.835453 42.835453 0 0 0-0.113773 60.242689l105.80869 106.832645H491.520899a42.266589 42.266589 0 0 0-42.09593 42.664794c0 23.550966 18.829396 42.664794 42.09593 42.664794h309.803292l-109.221873 110.359601zM522.41021 981.335206c0 23.550966-18.886282 42.664794-42.152817 42.664794H225.520129C132.453991 1024 57.022635 947.772234 57.022635 853.625255V299.096704c0-23.550966 18.886282-42.664794 42.209703-42.664794s42.209703 19.113828 42.209703 42.664794v553.902801c0 47.670797 37.545019 85.670907 84.078088 85.670907h254.737264c23.323421 0 42.209703 19.113828 42.152817 42.664794zM310.906604 42.823507c0-23.607853 18.886282-42.664794 42.209703-42.664794h379.489122c93.17991 0 168.668153 76.455311 168.55438 170.659177v340.806375c0 23.550966-18.886282 42.664794-42.209703 42.664795a42.437249 42.437249 0 0 1-42.209703-42.664795V170.81789a84.760724 84.760724 0 0 0-84.078088-85.329589H353.116307a42.437249 42.437249 0 0 1-42.209703-42.664794z" p-id="1674"></path></svg>