<?xml version="1.0" standalone="no"?><!DOCTYPE svg PUBLIC "-//W3C//DTD SVG 1.1//EN" "http://www.w3.org/Graphics/SVG/1.1/DTD/svg11.dtd"><svg t="1614246280826" class="icon" viewBox="0 0 1024 1024" version="1.1" xmlns="http://www.w3.org/2000/svg" p-id="11605" xmlns:xlink="http://www.w3.org/1999/xlink" width="200" height="200"><defs><style type="text/css"></style></defs><path d="M995.2 0L668.8 0.34a28.8 28.8 0 0 0-28.8 28.8v66.62a28.8 28.8 0 0 0 29.38 28.8l147.26-5.44 4.12 4.12-557.72 557.74a24 24 0 0 0 0 34l46 46a24 24 0 0 0 34 0l557.72-557.74 4.12 4.12-5.44 147.26a28.8 28.8 0 0 0 28.8 29.38h66.62a28.8 28.8 0 0 0 28.8-28.8L1024 28.8A28.8 28.8 0 0 0 995.2 0zM864 576h-32a32 32 0 0 0-32 32v308a12 12 0 0 1-12 12H108a12 12 0 0 1-12-12V236a12 12 0 0 1 12-12h308a32 32 0 0 0 32-32V160a32 32 0 0 0-32-32H96a96 96 0 0 0-96 96v704a96 96 0 0 0 96 96h704a96 96 0 0 0 96-96V608a32 32 0 0 0-32-32z" p-id="11606"></path></svg>