<?xml version="1.0" standalone="no"?><!DOCTYPE svg PUBLIC "-//W3C//DTD SVG 1.1//EN" "http://www.w3.org/Graphics/SVG/1.1/DTD/svg11.dtd"><svg t="1613138160756" class="icon" viewBox="0 0 1024 1024" version="1.1" xmlns="http://www.w3.org/2000/svg" p-id="1729" xmlns:xlink="http://www.w3.org/1999/xlink" width="200" height="200"><defs><style type="text/css"></style></defs><path d="M1011.136 502.912 541.44 13.056c-16.576-17.408-43.52-17.408-60.096 0C480.192 14.272 479.744 15.872 478.72 17.216L13.12 502.912c0 0-0.064 0.064-0.064 0.128L12.416 503.616c-16.576 17.344-16.576 45.504 0 62.848 9.152 9.6 21.312 13.312 33.28 12.416l126.08-0.256 0.384 392.96c-0.448 2.496-1.408 4.8-1.408 7.424 0 18.752 11.072 34.624 26.688 41.216 5.312 2.496 11.072 4.032 17.216 4.032 1.088 0 1.984-0.576 3.008-0.64l161.728-0.512c1.792 0.256 3.392 1.152 5.248 1.152 18.048 0 33.28-11.84 39.424-28.352 2.112-5.312 3.328-11.136 3.328-17.216 0-0.384-0.192-0.768-0.192-1.152l-0.32-220.8 170.048-0.256 0.32 214.848c-0.448 2.624-1.472 4.992-1.472 7.68 0 18.752 11.2 34.624 26.816 41.28 5.248 2.432 11.072 3.968 17.216 3.968 1.088 0 1.984-0.576 3.008-0.64l161.664-0.512c1.792 0.256 3.392 1.152 5.248 1.152 23.616 0 42.624-19.904 42.624-44.416l0-0.128c0-0.384 0.192-0.64 0.192-1.024s-0.192-0.64-0.192-1.024L851.84 577.728c0-24.448-19.072-44.416-42.432-44.416-23.552 0-42.624 19.968-42.624 44.416l0.448 356.48-85.056 0.192-0.384-219.456c0.064-1.088 0.64-2.048 0.64-3.2 0-12.416-4.928-23.616-12.864-31.68-7.68-8.256-18.368-13.376-30.272-13.376-1.088 0-1.92 0.576-3.008 0.64l-247.296 0.384c-1.6-0.192-3.008-1.024-4.672-1.024-11.968 0-22.656 5.248-30.4 13.504-8.064 8.128-13.184 19.456-13.184 32.064 0 1.92 0.832 3.648 1.088 5.568l0.32 216.384-84.992 0.192L256.704 537.088c0.064-1.088 0.576-1.984 0.576-3.072 0-12.48-4.928-23.68-12.8-31.744C236.8 494.016 226.112 488.896 214.208 488.896c-1.152 0-2.048 0.576-3.136 0.64L146.112 489.664l365.952-381.696 438.848 457.792c16.64 17.344 43.52 17.344 60.16 0C1027.648 548.416 1027.648 520.256 1011.136 502.912z" p-id="1730"></path></svg>