<?xml version="1.0" standalone="no"?><!DOCTYPE svg PUBLIC "-//W3C//DTD SVG 1.1//EN" "http://www.w3.org/Graphics/SVG/1.1/DTD/svg11.dtd"><svg t="1614777513836" class="icon" viewBox="0 0 1024 1024" version="1.1" xmlns="http://www.w3.org/2000/svg" p-id="3466" xmlns:xlink="http://www.w3.org/1999/xlink" width="200" height="200"><defs><style type="text/css"></style></defs><path d="M512 20.864l392.448 79.36a42.666667 42.666667 0 0 1 34.218667 41.813333v577.578667a42.666667 42.666667 0 0 1-20.565334 36.48L512 1002.24l-405.973333-243.84A42.666667 42.666667 0 0 1 85.333333 721.792V142.08a42.666667 42.666667 0 0 1 34.218667-41.813333L512 20.821333z m-0.042667 86.997333L170.666667 176.896v520.746667l341.12 204.842666L853.333333 695.509333V176.896l-341.376-69.034667zM512 213.333333a170.666667 170.666667 0 0 1 42.666667 335.957334V597.333333h64a21.333333 21.333333 0 0 1 21.333333 21.333334v42.666666a21.333333 21.333333 0 0 1-21.333333 21.333334H554.666667v64a21.333333 21.333333 0 0 1-21.333334 21.333333h-42.666666a21.333333 21.333333 0 0 1-21.333334-21.333333v-197.376A170.752 170.752 0 0 1 512 213.333333z m0 85.333334a85.333333 85.333333 0 1 0 0 170.666666 85.333333 85.333333 0 0 0 0-170.666666z" p-id="3467"></path></svg>