<?xml version="1.0" standalone="no"?><!DOCTYPE svg PUBLIC "-//W3C//DTD SVG 1.1//EN" "http://www.w3.org/Graphics/SVG/1.1/DTD/svg11.dtd"><svg t="1614058342254" class="icon" viewBox="0 0 1024 1024" version="1.1" xmlns="http://www.w3.org/2000/svg" p-id="7184" xmlns:xlink="http://www.w3.org/1999/xlink" width="200" height="200"><defs><style type="text/css"></style></defs><path d="M418.84946 747.419777V606.679359H278.102902c-77.723176 0-140.741441 63.017242-140.741441 140.741442 0 77.733409 63.017242 140.741441 140.741441 140.741441 77.730339-0.001023 140.746558-63.008033 140.746558-140.742465z m70.371744 0c0 116.596532-94.52177 211.111139-211.117278 211.111139-116.591415 0-211.111139-94.51563-211.111139-211.111139s94.520747-211.111139 211.111139-211.111138h211.118301v211.111138h-0.001023z m117.2801 0V606.679359H747.242745c77.733409 0 140.740418 63.017242 140.740418 140.741442 0 77.733409-63.005986 140.741441-140.740418 140.741441-77.725222-0.001023-140.741441-63.008033-140.741441-140.742465z m-70.370721 0c0 116.596532 94.520747 211.111139 211.112162 211.111139 116.596532 0 211.116255-94.51563 211.116256-211.111139S863.839277 536.308639 747.242745 536.308639H536.12956v70.369697l0.001023 140.741441z m-117.281123-469.137796v140.746558H278.102902c-77.723176 0-140.741441-63.017242-140.741441-140.746558 0-77.725222 63.017242-140.741441 140.741441-140.741441 77.730339 0 140.746558 63.016219 140.746558 140.741441z m70.371744 0c0-116.591415-94.52177-211.111139-211.117278-211.111139-116.591415 0-211.111139 94.520747-211.111139 211.111139 0 116.596532 94.520747 211.116255 211.111139 211.116255h211.118301V278.281981h-0.001023z m117.2801 0v140.746558H747.242745c77.733409 0 140.740418-63.017242 140.740418-140.746558 0-77.725222-63.005986-140.741441-140.740418-140.741441-77.725222 0-140.741441 63.016219-140.741441 140.741441z m-70.370721 0c0-116.591415 94.520747-211.111139 211.112162-211.111139 116.596532 0 211.116255 94.520747 211.116256 211.111139 0 116.596532-94.520747 211.116255-211.116256 211.116255H536.12956v-70.369697l0.001023-140.746558z" p-id="7185"></path></svg>