<?xml version="1.0" standalone="no"?><!DOCTYPE svg PUBLIC "-//W3C//DTD SVG 1.1//EN" "http://www.w3.org/Graphics/SVG/1.1/DTD/svg11.dtd"><svg t="1614002333484" class="icon" viewBox="0 0 1024 1024" version="1.1" xmlns="http://www.w3.org/2000/svg" p-id="2913" xmlns:xlink="http://www.w3.org/1999/xlink" width="200" height="200"><defs><style type="text/css"></style></defs><path d="M511.99775156 6.12502222C232.59670762 6.12502222 6.10591049 232.61244669 6.10591049 512c0 279.38980176 226.49304557 505.87385357 505.89184107 505.87385357 279.39991973 0 505.89521373-226.48405181 505.89521372-505.87385357 0-279.38867754-226.49641823-505.87497778-505.89521372-505.87497778z m0 965.76152562C257.9950651 971.88654784 52.09321621 765.97233255 52.09321621 512c0-254.0161771 205.90184889-459.88542363 459.90453535-459.88542363S971.90116269 257.98607134 971.90116269 512c0 253.96895989-205.90184889 459.88654784-459.90341113 459.88654784z m252.94816897-459.8842994H534.9902802V213.0757675c0-12.70817249-10.3045921-22.99365286-22.99365286-22.99365287-12.68793654 0-22.99477708 10.28323194-22.99477708 22.99365287v321.91788536c0 12.68793654 10.30908897 22.99365286 22.99477708 22.99365286h252.94816898c12.68681233 0 22.99477708-10.30684053 22.99477708-22.99365286-0.00224844-12.70592405-10.30908897-22.99252865-22.99477708-22.99252865z" p-id="2914"></path></svg>