<?xml version="1.0" standalone="no"?><!DOCTYPE svg PUBLIC "-//W3C//DTD SVG 1.1//EN" "http://www.w3.org/Graphics/SVG/1.1/DTD/svg11.dtd"><svg t="1614236238380" class="icon" viewBox="0 0 1024 1024" version="1.1" xmlns="http://www.w3.org/2000/svg" p-id="10856" xmlns:xlink="http://www.w3.org/1999/xlink" width="200" height="200"><defs><style type="text/css"></style></defs><path d="M381 740.5v83.37l-0.13 0.13H72.13l-0.13-0.13V200.13l0.13-0.13h308.74l0.13 0.13v83.37a36 36 0 0 0 36 36 36 36 0 0 0 36-36V200a72.21 72.21 0 0 0-72-72H72a72.21 72.21 0 0 0-72 72v624a72.21 72.21 0 0 0 72 72h309a72.21 72.21 0 0 0 72-72v-83.5a36 36 0 0 0-36-36 36 36 0 0 0-36 36z" p-id="10857"></path><path d="M308.22 667.5q15 0 25-10l130-120q10-10 10-25a37.37 37.37 0 0 0-10-26l-130-119a32.37 32.37 0 0 0-25-11 35.85 35.85 0 0 0-36 36 32.38 32.38 0 0 0 11 25l68 59h-206a36 36 0 1 0 0 72h206l-68 58q-11 11-11 25.5a34.13 34.13 0 0 0 10.5 25 34.72 34.72 0 0 0 25.5 10.5zM643 740.5v83.37l0.13 0.13h308.74l0.13-0.13V200.13l-0.13-0.13H643.13l-0.13 0.13v83.37a36 36 0 0 1-36 36 36 36 0 0 1-36-36V200a72.21 72.21 0 0 1 72-72h309a72.21 72.21 0 0 1 72 72v624a72.21 72.21 0 0 1-72 72H643a72.21 72.21 0 0 1-72-72v-83.5a36 36 0 0 1 36-36 36 36 0 0 1 36 36z" p-id="10858"></path><path d="M715.78 667.5q-15 0-25-10l-130-120q-10-10-10-25a37.37 37.37 0 0 1 10-26l130-119a32.37 32.37 0 0 1 25-11 35.85 35.85 0 0 1 36 36 32.38 32.38 0 0 1-11 25l-68 59h206a36 36 0 1 1 0 72h-206l68 58q11 11 11 25.5a34.13 34.13 0 0 1-10.5 25 34.72 34.72 0 0 1-25.5 10.5z" p-id="10859"></path></svg>