<?xml version="1.0" standalone="no"?><!DOCTYPE svg PUBLIC "-//W3C//DTD SVG 1.1//EN" "http://www.w3.org/Graphics/SVG/1.1/DTD/svg11.dtd"><svg t="1614056052490" class="icon" viewBox="0 0 1024 1024" version="1.1" xmlns="http://www.w3.org/2000/svg" p-id="5523" xmlns:xlink="http://www.w3.org/1999/xlink" width="200" height="200"><defs><style type="text/css"></style></defs><path d="M256 460.8h102.4v102.4H256z" p-id="5524"></path><path d="M409.6 460.8h102.4v102.4H409.6z" p-id="5525"></path><path d="M563.2 460.8h102.4v102.4h-102.4z" p-id="5526"></path><path d="M870.4 716.7488h-51.2v-51.2h51.2a51.2 51.2 0 0 0 51.2-51.2v-460.8a51.2 51.2 0 0 0-51.2-51.2H358.4a51.2 51.2 0 0 0-51.2 51.2v51.2H256v-51.2a102.4 102.4 0 0 1 102.4-102.4h512a102.4 102.4 0 0 1 102.4 102.4v460.8a102.4 102.4 0 0 1-102.4 102.4z" p-id="5527"></path><path d="M718.0288 819.1488l-81.152 81.152-81.152-81.152H483.328l153.6 153.6 153.6-153.6z" p-id="5528"></path><path d="M768 204.7488H153.6a102.4 102.4 0 0 0-102.4 102.4v460.8a102.4 102.4 0 0 0 102.4 102.4h409.6l-25.6-51.2H153.6a51.2 51.2 0 0 1-51.2-51.2v-460.8a51.2 51.2 0 0 1 51.2-51.2h614.4a51.2 51.2 0 0 1 51.2 51.2v460.8a51.2 51.2 0 0 1-51.2 51.2h-25.6l-25.6 51.2h51.2a102.4 102.4 0 0 0 102.4-102.4v-460.8a102.4 102.4 0 0 0-102.4-102.4z" p-id="5529"></path></svg>