<?xml version="1.0" standalone="no"?><!DOCTYPE svg PUBLIC "-//W3C//DTD SVG 1.1//EN" "http://www.w3.org/Graphics/SVG/1.1/DTD/svg11.dtd"><svg t="1614233133860" class="icon" viewBox="0 0 1025 1024" version="1.1" xmlns="http://www.w3.org/2000/svg" p-id="8424" xmlns:xlink="http://www.w3.org/1999/xlink" width="200.1953125" height="200"><defs><style type="text/css"></style></defs><path d="M959.9232 448.2816H65.7408c-35.072 0-65.7408 30.6944-65.7408 65.7408s30.6944 65.7408 65.7408 65.7408h894.1824c35.072 0 65.7408-30.6944 65.7408-65.7408s-30.6688-65.7408-65.7408-65.7408zM959.9232 813.9264H65.7408c-35.072 0-65.7408 30.6944-65.7408 65.7408 0 35.072 30.6944 65.7408 65.7408 65.7408h894.1824c35.072 0 65.7408-30.6944 65.7408-65.7408s-30.6688-65.7408-65.7408-65.7408zM65.7408 214.144h894.1824c35.072 0 65.7408-30.6944 65.7408-65.7408 0-35.072-30.6944-65.7408-65.7408-65.7408H65.7408C30.6944 82.6624 0 113.3568 0 148.4032c0 35.072 30.6944 65.7408 65.7408 65.7408z" p-id="8425"></path></svg>