<?xml version="1.0" standalone="no"?><!DOCTYPE svg PUBLIC "-//W3C//DTD SVG 1.1//EN" "http://www.w3.org/Graphics/SVG/1.1/DTD/svg11.dtd"><svg t="1614058431886" class="icon" viewBox="0 0 1365 1024" version="1.1" xmlns="http://www.w3.org/2000/svg" p-id="7939" xmlns:xlink="http://www.w3.org/1999/xlink" width="266.6015625" height="200"><defs><style type="text/css"></style></defs><path d="M0.796356 78.953005c0 20.477725 8.41862 40.955449 22.866793 55.289857a79.408066 79.408066 0 0 0 55.631152 23.094323 79.408066 79.408066 0 0 0 55.289856-22.980558 79.408066 79.408066 0 0 0 23.094323-55.403622 79.408066 79.408066 0 0 0-22.753027-55.631152 79.408066 79.408066 0 0 0-55.744918-22.866792 79.408066 79.408066 0 0 0-55.517386 22.866792 79.976891 79.976891 0 0 0-22.866793 55.631152m0 418.31441c0 20.477725 8.304855 41.069215 22.866793 55.517387a79.180535 79.180535 0 0 0 111.034773 0 79.294301 79.294301 0 0 0 22.980558-55.517387 79.635596 79.635596 0 0 0-22.980558-55.517387 79.180535 79.180535 0 0 0-111.034773 0 79.294301 79.294301 0 0 0-22.866793 55.517387m0 418.428174a79.635596 79.635596 0 0 0 22.866793 55.517387 79.180535 79.180535 0 0 0 111.034773 0 79.294301 79.294301 0 0 0 0-111.034774 79.294301 79.294301 0 0 0-55.403621-22.980557 79.635596 79.635596 0 0 0-55.631152 22.980557 79.863126 79.863126 0 0 0-22.866793 55.517387M1360.631041 78.953005c0 43.230752-33.788246 78.38418-75.426286 78.38418H390.100655a76.791468 76.791468 0 0 1-75.540051-78.497945c0-43.458282 33.788246-78.497945 75.540051-78.497945h895.1041c41.751805 0 75.426286 35.153427 75.426286 78.497945m-75.426286 496.926119H390.100655a76.905233 76.905233 0 0 1-75.540051-78.497944c0-43.230752 33.788246-78.497945 75.540051-78.497945h895.1041c41.751805 0 75.426286 35.039662 75.426286 78.497945 0 43.230752-33.788246 78.497945-75.426286 78.497944z m75.426286 339.816465c0 43.458282-33.788246 78.497945-75.426286 78.497945H390.100655a77.018998 77.018998 0 0 1-75.540051-78.497945c0-43.230752 33.788246-78.38418 75.540051-78.384179h895.1041c41.751805 0 75.426286 35.267193 75.426286 78.497944" fill="#666666" p-id="7940"></path></svg>