<?xml version="1.0" standalone="no"?><!DOCTYPE svg PUBLIC "-//W3C//DTD SVG 1.1//EN" "http://www.w3.org/Graphics/SVG/1.1/DTD/svg11.dtd"><svg t="1614055944231" class="icon" viewBox="0 0 1024 1024" version="1.1" xmlns="http://www.w3.org/2000/svg" p-id="4087" xmlns:xlink="http://www.w3.org/1999/xlink" width="200" height="200"><defs><style type="text/css"></style></defs><path d="M416 800a96 96 0 0 0 192 0h-192z m96-640a256 256 0 0 0-255.872 248L256 416v172.672l-96 95.872V736h704v-51.456l-96-95.872V416a256 256 0 0 0-256-256z m0 800a160 160 0 0 1-160-160H160a64 64 0 0 1-64-64v-64.096a32 32 0 0 1 9.44-22.624L192 562.944V400c0-162.56 127.584-295.296 288.064-303.584A1.024 1.024 0 0 1 480 96V64a32 32 0 0 1 64 0v32.416c160.448 8.32 288 141.056 288 303.584v162.944l86.592 86.368a32 32 0 0 1 9.408 22.656V736a64 64 0 0 1-64 64h-192a160 160 0 0 1-160 160z" fill="#000000" p-id="4088"></path></svg>