<?xml version="1.0" standalone="no"?><!DOCTYPE svg PUBLIC "-//W3C//DTD SVG 1.1//EN" "http://www.w3.org/Graphics/SVG/1.1/DTD/svg11.dtd"><svg t="1614156376370" class="icon" viewBox="0 0 1024 1024" version="1.1" xmlns="http://www.w3.org/2000/svg" p-id="4302" xmlns:xlink="http://www.w3.org/1999/xlink" width="200" height="200"><defs><style type="text/css"></style></defs><path d="M42.666667 324.266667H426.666667c25.6 119.466667 128 213.333333 256 213.333333s230.4-93.866667 247.466666-213.333333h42.666667c25.6 0 42.666667-17.066667 42.666667-42.666667s-17.066667-42.666667-42.666667-42.666667h-42.666667C913.066667 110.933333 810.666667 25.6 682.666667 25.6s-230.4 85.333333-256 213.333333H42.666667c-17.066667 0-42.666667 17.066667-42.666667 42.666667 0 17.066667 25.6 42.666667 42.666667 42.666667zM682.666667 110.933333c93.866667 0 170.666667 76.8 170.666666 170.666667s-76.8 170.666667-170.666666 170.666667-170.666667-76.8-170.666667-170.666667 76.8-170.666667 170.666667-170.666667zM981.333333 716.8H597.333333C571.733333 597.333333 469.333333 503.466667 341.333333 503.466667S110.933333 597.333333 93.866667 716.8H42.666667c-17.066667 0-42.666667 17.066667-42.666667 42.666667s17.066667 42.666667 42.666667 42.666666H85.333333c25.6 119.466667 128 213.333333 247.466667 213.333334S571.733333 921.6 597.333333 802.133333h384c25.6 0 42.666667-17.066667 42.666667-42.666666s-17.066667-42.666667-42.666667-42.666667zM341.333333 930.133333c-93.866667 0-170.666667-76.8-170.666666-170.666666s76.8-170.666667 170.666666-170.666667 170.666667 76.8 170.666667 170.666667-76.8 170.666667-170.666667 170.666666z" p-id="4303"></path></svg>