<?xml version="1.0" standalone="no"?><!DOCTYPE svg PUBLIC "-//W3C//DTD SVG 1.1//EN" "http://www.w3.org/Graphics/SVG/1.1/DTD/svg11.dtd"><svg t="1614156363837" class="icon" viewBox="0 0 1024 1024" version="1.1" xmlns="http://www.w3.org/2000/svg" p-id="3544" xmlns:xlink="http://www.w3.org/1999/xlink" width="200" height="200"><defs><style type="text/css"></style></defs><path d="M512 925.499c-228.371 0-413.499-185.133-413.499-413.491C98.501 283.635 283.63 98.502 512 98.502c228.368 0 413.499 185.133 413.499 413.506 0 228.358-185.13 413.49-413.499 413.49z m0-781.047c-202.996 0-367.554 164.559-367.554 367.555S309.004 879.56 512 879.56c202.994 0 367.554-164.559 367.554-367.554S714.994 144.452 512 144.452z m47.717 385.402c-10.294 8.468-18.012 18.016-23.155 28.672-5.883 10.668-8.822 22.802-8.822 36.404v9.367h-58.993v-9.367c0-21.323 3.672-38.797 11.027-52.386 6.98-14.698 27.749-37.5 62.3-68.37l9.373-10.476c10.286-13.24 15.438-26.636 15.438-40.238 0-18.75-5.332-33.818-15.99-45.207-11.026-11.027-26.652-16.547-46.862-16.547-24.998 0-43.004 7.914-54.03 23.703-9.925 13.24-14.886 31.977-14.886 56.247h-57.89c0-40.06 11.577-71.678 34.733-94.839 23.156-23.512 55.133-35.285 95.932-35.285 35.648 0 64.317 9.754 86.007 29.223 22.053 19.11 33.08 45.4 33.08 78.842 0 26.832-6.986 49.261-20.95 67.263-4.78 5.882-20.218 20.217-46.312 42.994zM497.968 634.06c12.13 0 21.866 3.682 29.221 11.029 7.72 6.988 11.578 16.368 11.578 28.118 0 11.027-4.047 20.588-12.13 28.67-8.088 7.36-17.642 11.028-28.669 11.028-11.396 0-20.95-3.862-28.669-11.583-7.719-7.707-11.578-17.089-11.578-28.115 0-11.75 3.86-21.13 11.578-28.118 7.35-7.347 16.903-11.03 28.67-11.03z" p-id="3545"></path></svg>