<?xml version="1.0" standalone="no"?><!DOCTYPE svg PUBLIC "-//W3C//DTD SVG 1.1//EN" "http://www.w3.org/Graphics/SVG/1.1/DTD/svg11.dtd"><svg t="1614055661200" class="icon" viewBox="0 0 1024 1024" version="1.1" xmlns="http://www.w3.org/2000/svg" p-id="1723" xmlns:xlink="http://www.w3.org/1999/xlink" width="200" height="200"><defs><style type="text/css"></style></defs><path d="M732.32 473.6c8.544 0 16.416 2.88 22.72 7.744C836.48 505.248 896 581.536 896 672c0 107.136-83.52 194.432-188 198.272l-7.136 0.128h-196.384c-1.408 0-2.848-0.096-4.224-0.224C484.32 922.208 436.544 960 380.064 960c-56.384 0-104.096-37.664-120.128-89.6H165.76A38.08 38.08 0 0 1 128 832c0-19.872 14.848-36.224 33.92-38.208l3.84-0.192h94.144c16.064-51.936 63.776-89.6 120.16-89.6 56.48 0 104.256 37.792 120.224 89.856l4.192-0.256h196.384c66.048 0 119.584-54.432 119.584-121.6 0-65.056-50.24-118.176-113.44-121.44l-6.144-0.16H291.68c-8.544 0-16.416-2.88-22.72-7.744C187.52 518.752 128 442.464 128 352c0-107.136 83.52-194.432 188-198.272l7.136-0.128h251.52C590.72 101.664 638.432 64 694.816 64c56.384 0 104.096 37.664 120.128 89.6h43.296c20.864 0 37.76 17.184 37.76 38.4 0 19.872-14.848 36.224-33.92 38.208l-3.84 0.192h-43.296c-16.064 51.936-63.776 89.6-120.128 89.6-56.384 0-104.096-37.664-120.128-89.6h-251.52C257.056 230.4 203.52 284.832 203.52 352c0 65.056 50.24 118.176 113.44 121.44l6.144 0.16h409.184z m-352.256 307.2c-27.84 0-50.368 22.912-50.368 51.2 0 28.288 22.56 51.2 50.368 51.2 27.808 0 50.368-22.912 50.368-51.2 0-28.288-22.56-51.2-50.368-51.2z m314.752-640c-27.84 0-50.368 22.912-50.368 51.2 0 28.288 22.56 51.2 50.368 51.2 27.84 0 50.368-22.912 50.368-51.2 0-28.288-22.56-51.2-50.368-51.2z" p-id="1724"></path></svg>