<?xml version="1.0" standalone="no"?><!DOCTYPE svg PUBLIC "-//W3C//DTD SVG 1.1//EN" "http://www.w3.org/Graphics/SVG/1.1/DTD/svg11.dtd"><svg t="1614233038047" class="icon" viewBox="0 0 1024 1024" version="1.1" xmlns="http://www.w3.org/2000/svg" p-id="8205" xmlns:xlink="http://www.w3.org/1999/xlink" width="200" height="200"><defs><style type="text/css"></style></defs><path d="M840.4 447.4c-19.5-20.5-46-31.9-74.8-31.9h-2c-8.1 0-15.9 0.9-23.6 2.8-19.4-26.3-49.6-42-83.3-42-8.6 0-17.1 1-25.4 3-19.4-26.4-49.7-42.3-83.5-42.3-1.2 0-2.3 0-3.5 0.1v-34.9c0-28.2-10.3-55.3-28.9-76.1-19.9-22.3-46.8-34.5-75.8-34.5-58.1 0-107.2 50.7-107.2 110.6V516c-19-14.8-43.2-22.5-69.3-21.8-28.5 0.7-55.2 11.6-73.3 29.7-18.5 18.5-31.2 44-34.7 69.8-4.4 32.6 5.9 63.4 29.1 86.6l0.1 0.1 210 208.6c5.3 5.3 11.4 10.1 18.1 14.3 41.5 33.4 90.8 55.6 193.5 55.6 108.6 0 181.1-29.1 221.7-88.8 34.7-51.1 41.8-116.3 41.8-198.6V522.2c0.2-28.4-10.2-55-29-74.8z m-34.8 224.1c0 70.4-5.2 125-30.8 162.6-17.7 26.1-54.5 60.8-168.8 60.8-85.4 0-122.5-16.3-154.7-42.5-1.2-0.9-2.4-1.8-3.7-2.6-3.2-1.9-5.8-4-8.1-6.2L229.6 634.9c-22.7-22.8-6-54.2 5.6-65.8 6.4-6.4 17.8-10.6 29.7-10.9 12.6-0.3 24 3.7 31.4 11l45.7 45.5c9.2 9.1 22.9 11.8 34.9 6.9 11.9-5 19.7-16.6 19.7-29.6V302.2c0-24.4 20.6-46.6 43.2-46.6 24.4 0 40.7 24.1 40.7 46.6v35.1c-0.3 1.9-0.5 3.8-0.5 5.8v169.2c0 17.7 14.3 32 32 32s32-14.3 32-32V401.9c1.6-0.6 3-0.9 4-0.9 16.4 0 29.9 9.1 36.8 24.6V544c0 17.7 14.3 32 32 32s32-14.3 32-32V441c2.7-0.5 5.3-0.8 8-0.8 16.4 0 29.9 9.1 36.8 24.6V577c0 17.7 14.3 32 32 32s32-14.3 32-32v-97c2-0.3 4-0.5 6.1-0.5h2c14.1 0 23.2 6.5 28.3 11.9 7.5 7.9 11.6 18.8 11.6 30.8v149.3z" fill="" p-id="8206"></path><path d="M281.4 285.3c17.7 0 32-14.3 32-32 0-68.8 56-124.8 124.8-124.8S563 184.5 563 253.3c0 17.7 14.3 32 32 32s32-14.3 32-32c0-104.1-84.7-188.8-188.8-188.8s-188.8 84.7-188.8 188.8c0 17.7 14.3 32 32 32z" fill="" p-id="8207"></path></svg>