<?xml version="1.0" standalone="no"?><!DOCTYPE svg PUBLIC "-//W3C//DTD SVG 1.1//EN" "http://www.w3.org/Graphics/SVG/1.1/DTD/svg11.dtd"><svg t="1614220540509" class="icon" viewBox="0 0 1024 1024" version="1.1" xmlns="http://www.w3.org/2000/svg" p-id="2083" xmlns:xlink="http://www.w3.org/1999/xlink" width="200" height="200"><defs><style type="text/css"></style></defs><path d="M200 790.4c-32-3.2-62.4-19.2-81.6-43.2-20.8-25.6-30.4-57.6-27.2-89.6 6.4-62.4 57.6-108.8 120-110.4H288v-88h-76.8C96 459.2 0 552 0 668.8c0 112 88 204.8 200 209.6V960l126.4-124.8-126.4-124.8v80zM579.2 724.8h-132.8c-60.8 0-110.4 49.6-110.4 110.4 0 60.8 49.6 110.4 110.4 110.4h132.8c60.8 0 110.4-49.6 110.4-110.4 0-60.8-49.6-110.4-110.4-110.4zM812.8 129.6H736v88h76.8c32 0 64 12.8 86.4 35.2 22.4 22.4 35.2 52.8 35.2 86.4 0 32-12.8 62.4-35.2 86.4-20.8 20.8-48 32-75.2 35.2v-81.6l-126.4 124.8 126.4 124.8v-81.6c115.2-4.8 206.4-102.4 200-217.6-4.8-112-99.2-200-211.2-200zM579.2 395.2h-132.8c-60.8 0-110.4 49.6-110.4 110.4 0 60.8 49.6 110.4 110.4 110.4h132.8c60.8 0 110.4-49.6 110.4-110.4 0-62.4-49.6-112-110.4-110.4zM579.2 64h-132.8C385.6 64 336 113.6 336 174.4c0 60.8 49.6 110.4 110.4 110.4h132.8c60.8 0 110.4-49.6 110.4-110.4 0-28.8-11.2-57.6-32-78.4-20.8-20.8-49.6-32-78.4-32z" p-id="2084"></path></svg>