<?xml version="1.0" standalone="no"?><!DOCTYPE svg PUBLIC "-//W3C//DTD SVG 1.1//EN" "http://www.w3.org/Graphics/SVG/1.1/DTD/svg11.dtd"><svg t="1613819364980" class="icon" viewBox="0 0 1024 1024" version="1.1" xmlns="http://www.w3.org/2000/svg" p-id="8119" xmlns:xlink="http://www.w3.org/1999/xlink" width="200" height="200"><defs><style type="text/css"></style></defs><path d="M897.071735 303.104102L645.782782 26.376259a33.304644 33.304644 0 0 0-24.651805-11.368155h-411.118132c-26.130454 0-49.325261 11.667451-66.078197 30.096446-16.774588 18.453193-27.127683 44.218124-27.127683 72.186383v789.145584c0 28.217885 10.356916 54.255367 27.127683 72.160911 17.001289 18.729564 40.197368 30.400836 66.07565 30.400836h604.208652c25.151056 0 48.322937-11.417825 65.098798-28.769354l0.500525-1.627661c17.253461-18.427721 27.382403-43.939205 27.382404-72.160912V330.245795a39.527455 39.527455 0 0 0-10.128942-27.141693z m-254.974752-172.542255l160.786925 176.072675h-123.321429c-10.356916 0-19.712783-4.056417-26.130455-12.193448l-1.481197-0.82402a43.183961 43.183961 0 0 1-9.856392-27.944061V130.561847z m195.819845 775.877217a27.262685 27.262685 0 0 1-6.920743 18.178095v0.550195a24.398358 24.398358 0 0 1-16.774588 7.337211H210.010298a21.947952 21.947952 0 0 1-16.775861-7.612309v-0.275097a26.169936 26.169936 0 0 1-6.896545-18.178095V117.292207a26.618243 26.618243 0 0 1 6.896545-18.178095 23.420233 23.420233 0 0 1 16.775861-7.335937h390.636094v173.892271a94.702361 94.702361 0 0 0 21.691958 60.518932l1.501574 0.801095c14.294888 16.275336 33.778423 25.764931 55.721281 25.764931H837.914281v553.681113zM240.602174 439.288893v306.555559c0 12.468546 9.126619 22.784707 20.212035 22.784706h502.121957c11.335041 0 20.690908-10.316161 20.690908-22.784706v-306.555559c0-12.468546-9.354593-23.035606-20.690908-23.035606H260.814209c-11.080321 0-20.212035 10.570881-20.212035 23.035606z m375.839407 23.061078h125.280227v107.14034h-125.278953v-107.14034z m0 153.261223h125.280227v107.165812h-125.278953v-107.165812zM449.235711 462.349971h125.280226v107.14034h-125.280226v-107.14034z m0 153.261223h125.280226v107.165812h-125.280226v-107.165812zM282.027293 462.349971h125.280227v107.14034h-125.280227v-107.14034z m0 153.261223h125.280227v107.165812h-125.280227v-107.165812z" p-id="8120"></path></svg>