<?xml version="1.0" standalone="no"?><!DOCTYPE svg PUBLIC "-//W3C//DTD SVG 1.1//EN" "http://www.w3.org/Graphics/SVG/1.1/DTD/svg11.dtd"><svg t="1614055835666" class="icon" viewBox="0 0 1024 1024" version="1.1" xmlns="http://www.w3.org/2000/svg" p-id="3350" xmlns:xlink="http://www.w3.org/1999/xlink" width="200" height="200"><defs><style type="text/css"></style></defs><path d="M932.988 96H720.626c-50.057 0-119.971 28.959-155.367 64.355L208.57 517.043c-35.394 35.395-35.394 93.315 0 128.71l265.676 265.673c35.395 35.396 93.314 35.396 128.71 0l356.685-356.685c35.4-35.396 64.359-105.31 64.359-155.367V187.012C1024 136.956 983.044 96 932.988 96z m-121.35 303.374c-50.265 0-91.012-40.747-91.012-91.012s40.747-91.012 91.012-91.012 91.012 40.747 91.012 91.012-40.747 91.012-91.012 91.012zM74.653 602.847l324.59 324.59c-34.38 18.164-78.178 12.836-107.021-16.011L26.546 645.754c-35.395-35.396-35.395-93.316 0-128.71l356.688-356.689C418.63 124.96 488.544 96 538.601 96L74.653 559.946c-11.797 11.8-11.797 31.104 0 42.901z" p-id="3351"></path></svg>