<?xml version="1.0" standalone="no"?><!DOCTYPE svg PUBLIC "-//W3C//DTD SVG 1.1//EN" "http://www.w3.org/Graphics/SVG/1.1/DTD/svg11.dtd"><svg t="1614062142141" class="icon" viewBox="0 0 1024 1024" version="1.1" xmlns="http://www.w3.org/2000/svg" p-id="17399" xmlns:xlink="http://www.w3.org/1999/xlink" width="200" height="200"><defs><style type="text/css"></style></defs><path d="M512 998.016c-267.968 0-486.016-217.984-486.016-486.016 0-267.968 218.048-486.016 486.016-486.016 268.032 0 486.016 218.048 486.016 486.016C998.016 780.032 780.032 998.016 512 998.016zM512 89.984C279.296 89.984 89.984 279.296 89.984 512S279.296 934.016 512 934.016 934.016 744.704 934.016 512 744.704 89.984 512 89.984zM696 544l-368 0c-17.664 0-32-14.336-32-32s14.336-32 32-32l368 0c17.664 0 32 14.336 32 32S713.664 544 696 544z" p-id="17400"></path></svg>