<?xml version="1.0" standalone="no"?><!DOCTYPE svg PUBLIC "-//W3C//DTD SVG 1.1//EN" "http://www.w3.org/Graphics/SVG/1.1/DTD/svg11.dtd"><svg t="1614161921564" class="icon" viewBox="0 0 1445 1024" version="1.1" xmlns="http://www.w3.org/2000/svg" p-id="2059" xmlns:xlink="http://www.w3.org/1999/xlink" width="282.2265625" height="200"><defs><style type="text/css"></style></defs><path d="M1378.425675 273.046588H336.234616A67.764706 67.764706 0 0 1 268.951793 204.8c0-37.707294 30.117647-68.246588 67.282823-68.246588h1042.191059C1415.530616 136.553412 1445.648264 167.092706 1445.648264 204.8s-30.117647 68.246588-67.222589 68.246588zM201.729205 750.953412a101.978353 101.978353 0 0 1-67.222589 96.075294v142.817882c0 18.853647-15.058824 34.153412-33.611294 34.153412a33.852235 33.852235 0 0 1-33.671529-34.153412v-142.757647A101.737412 101.737412 0 0 1 0.001205 750.832941c0-43.309176 26.985412-81.859765 67.222588-96.135529V300.935529A101.737412 101.737412 0 0 1 0.06144 204.8c0-43.309176 26.925176-81.859765 67.162353-96.135529V34.153412c0-18.853647 15.058824-34.153412 33.671529-34.153412 18.552471 0 33.611294 15.299765 33.611294 34.153412v74.511059A101.737412 101.737412 0 0 1 201.668969 204.8c0 43.309176-26.925176 81.859765-67.162353 96.135529v353.882353a101.978353 101.978353 0 0 1 67.222589 96.13553z m134.505411-409.6h571.512471c37.104941 0 67.222588 30.539294 67.222588 68.246588s-30.117647 68.246588-67.222588 68.246588H336.234616A67.764706 67.764706 0 0 1 268.951793 409.6c0-37.707294 30.117647-68.246588 67.282823-68.246588z m0 341.293176h1042.191059c37.104941 0 67.222588 30.599529 67.222589 68.306824 0 37.707294-30.117647 68.246588-67.222589 68.246588H336.234616a67.764706 67.764706 0 0 1-67.282823-68.246588c0-37.707294 30.117647-68.306824 67.282823-68.306824z m0 204.8h571.512471c37.104941 0 67.222588 30.599529 67.222588 68.306824 0 37.707294-30.117647 68.246588-67.222588 68.246588H336.234616a67.764706 67.764706 0 0 1-67.282823-68.246588c0-37.707294 30.117647-68.306824 67.282823-68.306824z" p-id="2060"></path></svg>